<svg xmlns="http://www.w3.org/2000/svg" width="256" height="256" viewBox="0 0 100 100"><rect width="100" height="100" rx="0" fill="#ffffff"></rect><path fill="#000000" d="M43.10 54.11Q47.45 57.90 47.45 61.90L47.45 61.90Q47.45 64.52 45.65 67.15L45.65 67.15Q39.30 76.25 30.75 78.39L30.75 78.39Q28.54 78.95 25.78 78.95L25.78 78.95Q19.30 78.95 13.36 75.70L13.36 75.70Q10.53 74.18 9.43 71.77Q8.32 69.35 8.32 66.04L8.32 66.04Q8.32 63.70 8.88 59.28L8.88 59.28Q9.08 58.11 10.81 58.11L10.81 58.11Q12.74 58.11 14.74 59.35Q16.74 60.59 16.53 62.11L16.53 62.11Q16.47 62.66 16.19 64.56Q15.91 66.46 15.91 68.04L15.91 68.04Q15.91 71.63 17.64 72.87L17.64 72.87Q19.36 74.12 22.12 74.12L22.12 74.12Q24.88 74.12 27.85 72.94L27.85 72.94Q30.13 72.05 32.92 69.98Q35.72 67.91 37.68 65.28Q39.65 62.66 39.65 60.18L39.65 60.18Q39.65 58.18 38.27 56.52L38.27 56.52Q36.89 54.93 34.37 53.48Q31.85 52.04 27.71 50.10L27.71 50.10Q22.61 47.69 19.54 45.86Q16.47 44.03 14.26 41.51Q12.05 38.99 12.05 35.82L12.05 35.82Q12.05 34.37 12.39 33.27L12.39 33.27Q14.05 27.06 20.57 24.33Q27.09 21.61 34.68 21.61L34.68 21.61Q37.99 21.61 40.48 22.02Q42.96 22.43 44.62 23.81L44.62 23.81Q46.48 25.33 46.48 28.09L46.48 28.09Q46.48 29.75 45.96 31.37Q45.45 32.99 44.41 35.75L44.41 35.75Q43.65 37.61 43.51 38.03L43.51 38.03Q43.10 39.20 41.24 39.20L41.24 39.20Q39.37 39.20 37.58 38.17Q35.79 37.13 35.79 35.82L35.79 35.82Q35.79 35.48 35.86 35.27L35.86 35.27L36.89 32.30Q37.58 30.37 37.86 29.40L37.86 29.40L38.34 26.51L38.34 26.51Q29.64 26.37 24.47 30.02L24.47 30.02Q22.40 31.40 21.26 33.23Q20.12 35.06 20.12 36.92L20.12 36.92Q20.12 40.17 23.37 42.51L23.37 42.51Q25.71 44.17 28.58 45.62Q31.44 47.07 32.06 47.41L32.06 47.41Q36.06 49.41 38.51 50.79Q40.96 52.17 43.10 54.11L43.10 54.11ZM84.57 23.47Q84.98 22.50 86.64 21.78Q88.30 21.05 89.74 21.05L89.74 21.05Q91.68 21.05 91.68 22.30L91.68 22.30Q91.68 22.78 91.54 23.06L91.54 23.06Q86.98 34.44 83.60 46.52L83.60 46.52L85.47 46.45Q87.74 46.38 87.74 47.41L87.74 47.41Q87.74 48.38 86.12 49.62Q84.50 50.86 83.12 51.00L83.12 51.00L82.36 51.14Q79.39 62.59 77.46 75.63L77.46 75.63Q77.25 76.94 75.39 77.91Q73.53 78.88 71.73 78.88L71.73 78.88Q70.77 78.88 70.22 78.46Q69.67 78.05 69.73 77.29L69.73 77.29Q71.53 64.46 74.70 52.24L74.70 52.24Q68.01 53.48 61.32 55.55L61.32 55.55Q59.73 63.01 58.00 74.18L58.00 74.18Q57.80 75.50 55.93 76.46Q54.07 77.43 52.28 77.43L52.28 77.43Q51.24 77.43 50.69 77.01Q50.14 76.60 50.28 75.77L50.28 75.77Q51.73 66.04 53.45 57.62L53.45 57.62Q52.07 57.28 52.07 56.11L52.07 56.11Q52.07 55.42 52.66 54.73Q53.24 54.04 54.35 53.48L54.35 53.48Q58.07 37.48 63.52 24.57L63.52 24.57Q63.94 23.61 65.59 22.88Q67.25 22.16 68.77 22.16L68.77 22.16Q70.70 22.16 70.70 23.40L70.70 23.40Q70.70 23.88 70.56 24.16L70.56 24.16Q65.94 35.96 62.42 50.45L62.42 50.45Q68.97 48.31 76.08 47.27L76.08 47.27Q79.81 34.37 84.57 23.47L84.57 23.47Z"></path></svg>